<?xml version="1.0" encoding="UTF-8"?>
<svg width="1024" height="768" viewBox="0 0 1024 768" version="1.1" xmlns="http://www.w3.org/2000/svg">
    <title>Calendário Copa 2026 - Domingo (14/06)</title>
    
    <rect width="1024" height="768" fill="#ffffff" x="0" y="0"/>
    
    <rect width="1024" height="110" fill="#ff9900" x="0" y="0"/>
    <text x="512" y="70" font-family="Arial, Helvetica, sans-serif" font-size="46" font-weight="bold" fill="#000000" text-anchor="middle" letter-spacing="2">DOMINGO, 14 DE JUNHO</text>
    
    <g transform="translate(0, 110)">
        <rect width="1024" height="164.5" fill="#ffffff" stroke="#e6e6e6" stroke-width="2" stroke-dasharray="12,6"/>
        <g transform="translate(512, 0)" font-family="Arial, Helvetica, sans-serif" font-weight="bold" text-anchor="middle">
            <text x="0" y="65" font-size="42" fill="#999999">X</text>
            <text x="0" y="115" font-size="38" fill="#ff5500" font-weight="900">14:00</text>
            
            <image href="https://flagcdn.com/w160/de.png" width="110" height="73" x="-315" y="15"/>
            <text x="-260" y="130" font-size="34" fill="#000000">Alemanha</text>
            
            <image href="https://flagcdn.com/w160/cw.png" width="110" height="73" x="205" y="15"/>
            <text x="260" y="130" font-size="34" fill="#000000">Curaçau</text>
        </g>
    </g>

    <g transform="translate(0, 274.5)">
        <rect width="1024" height="164.5" fill="#ffffff" stroke="#e6e6e6" stroke-width="2" stroke-dasharray="12,6"/>
        <g transform="translate(512, 0)" font-family="Arial, Helvetica, sans-serif" font-weight="bold" text-anchor="middle">
            <text x="0" y="65" font-size="42" fill="#999999">X</text>
            <text x="0" y="115" font-size="38" fill="#ff5500" font-weight="900">17:00</text>
            
            <image href="https://flagcdn.com/w160/nl.png" width="110" height="73" x="-315" y="15"/>
            <text x="-260" y="130" font-size="34" fill="#000000">Holanda</text>
            
            <image href="https://flagcdn.com/w160/jp.png" width="110" height="73" x="205" y="15"/>
            <text x="260" y="130" font-size="34" fill="#000000">Japão</text>
        </g>
    </g>

    <g transform="translate(0, 439)">
        <rect width="1024" height="164.5" fill="#ffffff" stroke="#e6e6e6" stroke-width="2" stroke-dasharray="12,6"/>
        <g transform="translate(512, 0)" font-family="Arial, Helvetica, sans-serif" font-weight="bold" text-anchor="middle">
            <text x="0" y="65" font-size="42" fill="#999999">X</text>
            <text x="0" y="115" font-size="38" fill="#ff5500" font-weight="900">20:00</text>
            
            <image href="https://flagcdn.com/w160/ci.png" width="110" height="73" x="-315" y="15"/>
            <text x="-260" y="130" font-size="34" fill="#000000">C. Marfim</text>
            
            <image href="https://flagcdn.com/w160/ec.png" width="110" height="73" x="205" y="15"/>
            <text x="260" y="130" font-size="34" fill="#000000">Equador</text>
        </g>
    </g>

    <g transform="translate(0, 603.5)">
        <rect width="1024" height="164.5" fill="#ffffff"/>
        <g transform="translate(512, 0)" font-family="Arial, Helvetica, sans-serif" font-weight="bold" text-anchor="middle">
            <text x="0" y="65" font-size="42" fill="#999999">X</text>
            <text x="0" y="115" font-size="38" fill="#ff5500" font-weight="900">23:00</text>
            
            <image href="https://flagcdn.com/w160/se.png" width="110" height="73" x="-315" y="15"/>
            <text x="-260" y="130" font-size="34" fill="#000000">Suécia</text>
            
            <image href="https://flagcdn.com/w160/tn.png" width="110" height="73" x="205" y="15"/>
            <text x="260" y="130" font-size="34" fill="#000000">Tunísia</text>
        </g>
    </g>

    <rect width="1020" height="764" x="2" y="2" fill="none" stroke="#000000" stroke-width="4" rx="4"/>
</svg>
